<?xml version="1.0" encoding="iso-8859-1"?>
<!-- Generator: Adobe Illustrator 19.0.0, SVG Export Plug-In . SVG Version: 6.00 Build 0)  -->
<svg version="1.1" id="Capa_1" xmlns="http://www.w3.org/2000/svg" xmlns:xlink="http://www.w3.org/1999/xlink" x="0px" y="0px"
	 viewBox="0 0 512 512" style="enable-background:new 0 0 512 512;" xml:space="preserve">
<g>
	<g>
		<path d="M461.062,162.884c-2.293-8.553-8.616-15.47-16.801-18.59C455.13,134.669,462,120.625,462,104.999v-30
			c0-28.948-23.552-52.5-52.5-52.5S357,46.051,357,74.999v30c0,15.626,6.87,29.67,17.739,39.296
			c-8.185,3.119-14.507,10.037-16.801,18.59C329.313,166.153,307,190.513,307,219.999c0,29.331,22.08,53.585,50.488,57.057
			c1.547,11.458,6.797,21.752,14.512,29.635v159.903l-24.872,8.29c-3.93,1.31-6.053,5.558-4.743,9.487
			c1.048,3.143,3.974,5.13,7.114,5.13c0.786,0,1.586-0.125,2.373-0.387l30-10c3.062-1.021,5.128-3.887,5.128-7.115V317.423
			c6.824,3.251,14.452,5.076,22.5,5.076c8.048,0,15.676-1.825,22.5-5.076v149.171l-24.872,8.29c-3.93,1.31-6.053,5.558-4.743,9.487
			c1.048,3.143,3.974,5.13,7.114,5.13c0.786,0,1.586-0.125,2.373-0.387l30-10c3.062-1.021,5.128-3.887,5.128-7.115V306.691
			c7.715-7.883,12.965-18.177,14.512-29.635C489.92,273.584,512,249.33,512,219.999C512,190.513,489.687,166.153,461.062,162.884z
			 M357,261.822c-19.868-3.553-35-20.948-35-41.823s15.132-38.27,35-41.824V261.822z M372,74.999c0-20.678,16.822-37.5,37.5-37.5
			c20.678,0,37.5,16.822,37.5,37.5v2.5h-15.139c-5.653-6.324-13.747-10-22.361-10c-8.614,0-16.708,3.676-22.361,10H372V74.999z
			 M372,104.999v-12.5h18.791c2.502,0,4.84-1.248,6.232-3.327c2.797-4.179,7.462-6.673,12.477-6.673
			c5.015,0,9.68,2.494,12.477,6.673c1.393,2.079,3.73,3.327,6.232,3.327H447v12.5c0,20.678-16.822,37.5-37.5,37.5
			C388.822,142.499,372,125.677,372,104.999z M421.753,157.499L409.5,179.556l-12.253-22.057H421.753z M409.501,307.499
			c-18.11,0-33.262-12.904-36.746-30h73.491C442.762,294.595,427.611,307.499,409.501,307.499z M447.002,262.499h-30v-37.512
			c0-4.143-3.357-7.5-7.5-7.5s-7.5,3.357-7.5,7.5v37.512h-30v-92.5c-0.002-5.479,3.547-10.135,8.463-11.819l22.479,40.461
			c1.323,2.381,3.833,3.857,6.557,3.857s5.233-1.477,6.557-3.857l22.479-40.461c4.916,1.684,8.465,6.34,8.465,11.819V262.499z
			 M462,261.823v-83.647c19.868,3.553,35,20.949,35,41.823C497,240.874,481.868,258.269,462,261.823z"/>
	</g>
</g>
<g>
	<g>
		<path d="M274.5,50.499H7.5c-4.142,0-7.5,3.357-7.5,7.5v106c0,4.143,3.358,7.5,7.5,7.5s7.5-3.357,7.5-7.5v-98.5h252v197h-38.5
			V213.47c0-2.066-0.853-4.042-2.357-5.459L188.5,172.546v-16.861c0-0.074-0.009-0.146-0.011-0.219
			c-0.004-0.142-0.01-0.283-0.022-0.425c-0.009-0.106-0.022-0.211-0.036-0.317c-0.018-0.144-0.04-0.288-0.067-0.431
			c-0.019-0.098-0.04-0.196-0.062-0.293c-0.034-0.148-0.072-0.295-0.115-0.442c-0.027-0.09-0.055-0.18-0.085-0.269
			c-0.05-0.148-0.105-0.295-0.164-0.441c-0.035-0.085-0.071-0.17-0.109-0.254c-0.064-0.142-0.133-0.281-0.207-0.419
			c-0.046-0.086-0.092-0.172-0.141-0.256c-0.074-0.127-0.153-0.252-0.235-0.376c-0.061-0.092-0.122-0.182-0.187-0.271
			c-0.08-0.11-0.165-0.217-0.252-0.324c-0.077-0.094-0.155-0.188-0.237-0.279c-0.038-0.042-0.07-0.087-0.109-0.129
			c-0.054-0.057-0.113-0.106-0.169-0.162c-0.05-0.05-0.095-0.105-0.147-0.154l-40-37.686c-2.889-2.721-7.397-2.721-10.286,0
			l-40,37.686c-0.051,0.048-0.096,0.103-0.146,0.152c-0.056,0.056-0.116,0.105-0.17,0.163c-0.039,0.042-0.072,0.086-0.109,0.129
			c-0.082,0.091-0.16,0.184-0.237,0.279c-0.087,0.106-0.172,0.214-0.252,0.324c-0.065,0.089-0.126,0.179-0.187,0.271
			c-0.082,0.124-0.161,0.249-0.235,0.376c-0.049,0.084-0.096,0.17-0.141,0.256c-0.073,0.138-0.143,0.278-0.207,0.419
			c-0.038,0.084-0.074,0.169-0.109,0.254c-0.06,0.146-0.114,0.292-0.164,0.441c-0.03,0.089-0.058,0.178-0.085,0.269
			c-0.043,0.146-0.081,0.294-0.115,0.442c-0.022,0.097-0.044,0.195-0.062,0.293c-0.027,0.143-0.048,0.287-0.067,0.431
			c-0.014,0.105-0.027,0.21-0.036,0.317c-0.012,0.141-0.018,0.283-0.022,0.425c-0.002,0.073-0.011,0.146-0.011,0.219v41.985
			l-37.643,35.465c-1.504,1.417-2.357,3.393-2.357,5.459v23.905H15v-68.5c0-4.143-3.358-7.5-7.5-7.5s-7.5,3.357-7.5,7.5v288
			c0,4.143,3.358,7.5,7.5,7.5h267c4.143,0,7.5-3.357,7.5-7.5v-424C282,53.856,278.643,50.499,274.5,50.499z M188.5,193.155
			l25,23.553v45.791h-25V193.155z M141,128.304l29.063,27.381L141,183.066l-29.063-27.382L141,128.304z M108.5,173.055l25,23.554
			v11.762c0,4.143,3.358,7.5,7.5,7.5c4.142,0,7.5-3.357,7.5-7.5v-11.762l25-23.554v89.444h-25v-24.128c0-4.143-3.358-7.5-7.5-7.5
			c-4.142,0-7.5,3.357-7.5,7.5v24.128h-25V173.055z M68.5,241.832l25-23.553v44.22h-25V241.832z M267,474.499H15v-167h252V474.499z
			 M267,292.499H15v-15h252V292.499z"/>
	</g>
</g>
<g>
	<g>
		<path d="M244.5,322.499H141c-4.142,0-7.5,3.357-7.5,7.5v45c0,4.143,3.358,7.5,7.5,7.5h103.5c4.142,0,7.5-3.357,7.5-7.5v-45
			C252,325.856,248.642,322.499,244.5,322.499z M237,367.499h-88.5v-30H237V367.499z"/>
	</g>
</g>
<g>
</g>
<g>
</g>
<g>
</g>
<g>
</g>
<g>
</g>
<g>
</g>
<g>
</g>
<g>
</g>
<g>
</g>
<g>
</g>
<g>
</g>
<g>
</g>
<g>
</g>
<g>
</g>
<g>
</g>
</svg>
