<svg viewBox="0 0 512 512" fill="none" xmlns="http://www.w3.org/2000/svg">
<g id="uk">
<path id="Vector" d="M512 85.333H0V426.67H512V85.333Z" fill="#F0F0F0"/>
<path id="Vector_2" d="M288 85.33H224V223.996H0V287.996H224V426.662H288V287.996H512V223.996H288V85.33Z" fill="#D80027"/>
<g id="Group">
<path id="Vector_3" d="M393.785 315.358L512 381.034V315.358H393.785Z" fill="#0052B4"/>
<path id="Vector_4" d="M311.652 315.358L512 426.662V395.188L368.307 315.358H311.652Z" fill="#0052B4"/>
<path id="Vector_5" d="M458.634 426.662L311.652 344.998V426.662H458.634Z" fill="#0052B4"/>
</g>
<path id="Vector_6" d="M311.652 315.358L512 426.662V395.188L368.307 315.358H311.652Z" fill="#F0F0F0"/>
<path id="Vector_7" d="M311.652 315.358L512 426.662V395.188L368.307 315.358H311.652Z" fill="#D80027"/>
<g id="Group_2">
<path id="Vector_8" d="M90.341 315.356L0 365.546V315.356H90.341Z" fill="#0052B4"/>
<path id="Vector_9" d="M200.348 329.51V426.661H25.491L200.348 329.51Z" fill="#0052B4"/>
</g>
<path id="Vector_10" d="M143.693 315.358L0 395.188V426.662L200.348 315.358H143.693Z" fill="#D80027"/>
<g id="Group_3">
<path id="Vector_11" d="M118.215 196.634L0 130.958V196.634H118.215Z" fill="#0052B4"/>
<path id="Vector_12" d="M200.348 196.634L0 85.33V116.804L143.693 196.634H200.348Z" fill="#0052B4"/>
<path id="Vector_13" d="M53.366 85.33L200.348 166.994V85.33H53.366Z" fill="#0052B4"/>
</g>
<path id="Vector_14" d="M200.348 196.634L0 85.33V116.804L143.693 196.634H200.348Z" fill="#F0F0F0"/>
<path id="Vector_15" d="M200.348 196.634L0 85.33V116.804L143.693 196.634H200.348Z" fill="#D80027"/>
<g id="Group_4">
<path id="Vector_16" d="M421.659 196.636L512 146.446V196.636H421.659Z" fill="#0052B4"/>
<path id="Vector_17" d="M311.652 182.482V85.331H486.509L311.652 182.482Z" fill="#0052B4"/>
</g>
<path id="Vector_18" d="M368.307 196.634L512 116.804V85.33L311.652 196.634H368.307Z" fill="#D80027"/>
</g>
</svg>
